<svg width="210" height="210" viewBox="0 0 210 210" fill="none" xmlns="http://www.w3.org/2000/svg">
<path d="M94.582 99.683C94.2571 84.2922 90.9949 69.1051 84.9708 54.9381C46.5264 72.8869 18.2858 106.752 8.63235 146.714C14.2817 159.655 22.4743 171.33 32.7236 181.045C42.4704 147.159 64.5336 118.14 94.582 99.683ZM78.9586 42.7888C72.5191 31.5715 64.3128 21.4655 54.6556 12.8601C16.1265 33.9415 -6.65229 77.5857 1.73097 123.855C15.8724 88.6767 43.3933 59.51 78.9586 42.7888ZM158.388 112.679C162.029 70.4316 146.829 29.0733 117.107 0.753182C110.883 0.0335383 95.2594 -1.57508 75.2327 4.3514C99.7353 29.7373 113.856 63.3675 114.82 98.6332C128.313 106.052 143.102 110.819 158.388 112.679ZM105.59 116.7C92.4211 124.695 80.8967 135.125 71.6338 147.433C106.352 171.69 149.751 179.225 189.127 167.668C197.596 156.322 203.675 143.375 206.994 129.612C195.797 132.464 184.295 133.942 172.741 134.014C149.624 133.972 126.633 128.045 105.59 116.7ZM63.9703 158.905C57.5347 169.912 53.089 181.934 50.3793 194.549C69.1609 206.075 91.1034 211.375 113.076 209.695C135.049 208.015 155.931 199.44 172.741 185.194C124.94 192.009 86.6644 174.695 63.9703 158.905ZM140.309 6.25634C163.723 36.0581 175.239 74.4955 171.894 113.61C184.793 113.637 197.613 111.608 209.873 107.599C209.873 106.752 210 105.906 210 105.059C210 59.4253 180.913 20.7762 140.309 6.25634Z" fill="url(#paint0_linear_678_714)" fill-opacity="0.4"/>
<defs>
<linearGradient id="paint0_linear_678_714" x1="7.875" y1="13.7601" x2="191.72" y2="187.892" gradientUnits="userSpaceOnUse">
<stop stop-color="#FB36F4"/>
<stop offset="1" stop-color="#0101EC"/>
</linearGradient>
</defs>
</svg>
